TITLE ""
FILE "P1Q_j_1601-1613.mp3" MP3
  TRACK 01 AUDIO
    TITLE "P1Q_j_1601-1613_01"
    INDEX 01 00:00:00
  TRACK 02 AUDIO
    TITLE "P1Q_j_1601-1613_02"
    INDEX 01 00:00:20
  TRACK 03 AUDIO
    TITLE "P1Q_j_1601-1613_03"
    INDEX 01 00:01:47
  TRACK 04 AUDIO
    TITLE "P1Q_j_1601-1613_04"
    INDEX 01 00:02:17
  TRACK 05 AUDIO
    TITLE "P1Q_j_1601-1613_05"
    INDEX 01 00:04:06
  TRACK 06 AUDIO
    TITLE "P1Q_j_1601-1613_06"
    INDEX 01 00:04:53
  TRACK 07 AUDIO
    TITLE "P1Q_j_1601-1613_07"
    INDEX 01 00:06:13
  TRACK 08 AUDIO
    TITLE "P1Q_j_1601-1613_08"
    INDEX 01 00:06:31
  TRACK 09 AUDIO
    TITLE "P1Q_j_1601-1613_09"
    INDEX 01 00:11:73
  TRACK 10 AUDIO
    TITLE "P1Q_j_1601-1613_10"
    INDEX 01 00:12:17
  TRACK 11 AUDIO
    TITLE "P1Q_j_1601-1613_11"
    INDEX 01 00:19:23
  TRACK 12 AUDIO
    TITLE "P1Q_j_1601-1613_12"
    INDEX 01 00:19:70
  TRACK 13 AUDIO
    TITLE "P1Q_j_1601-1613_13"
    INDEX 01 00:22:26
  TRACK 14 AUDIO
    TITLE "P1Q_j_1601-1613_14"
    INDEX 01 00:22:47
  TRACK 15 AUDIO
    TITLE "P1Q_j_1601-1613_15"
    INDEX 01 00:27:70
  TRACK 16 AUDIO
    TITLE "P1Q_j_1601-1613_16"
    INDEX 01 00:28:14
  TRACK 17 AUDIO
    TITLE "P1Q_j_1601-1613_17"
    INDEX 01 00:31:56
  TRACK 18 AUDIO
    TITLE "P1Q_j_1601-1613_18"
    INDEX 01 00:32:26
  TRACK 19 AUDIO
    TITLE "P1Q_j_1601-1613_19"
    INDEX 01 00:33:51
  TRACK 20 AUDIO
    TITLE "P1Q_j_1601-1613_20"
    INDEX 01 00:33:72
  TRACK 21 AUDIO
    TITLE "P1Q_j_1601-1613_21"
    INDEX 01 00:40:16
  TRACK 22 AUDIO
    TITLE "P1Q_j_1601-1613_22"
    INDEX 01 00:40:37
  TRACK 23 AUDIO
    TITLE "P1Q_j_1601-1613_23"
    INDEX 01 00:45:64
  TRACK 24 AUDIO
    TITLE "P1Q_j_1601-1613_24"
    INDEX 01 00:46:36
  TRACK 25 AUDIO
    TITLE "P1Q_j_1601-1613_25"
    INDEX 01 00:47:63
  TRACK 26 AUDIO
    TITLE "P1Q_j_1601-1613_26"
    INDEX 01 00:48:07
  TRACK 27 AUDIO
    TITLE "P1Q_j_1601-1613_27"
    INDEX 01 00:52:03
  TRACK 28 AUDIO
    TITLE "P1Q_j_1601-1613_28"
    INDEX 01 00:52:23
  TRACK 29 AUDIO
    TITLE "P1Q_j_1601-1613_29"
    INDEX 01 00:55:56
  TRACK 30 AUDIO
    TITLE "P1Q_j_1601-1613_30"
    INDEX 01 00:56:26
  TRACK 31 AUDIO
    TITLE "P1Q_j_1601-1613_31"
    INDEX 01 00:57:69
  TRACK 32 AUDIO
    TITLE "P1Q_j_1601-1613_32"
    INDEX 01 00:58:14
  TRACK 33 AUDIO
    TITLE "P1Q_j_1601-1613_33"
    INDEX 01 01:03:11
  TRACK 34 AUDIO
    TITLE "P1Q_j_1601-1613_34"
    INDEX 01 01:03:30
  TRACK 35 AUDIO
    TITLE "P1Q_j_1601-1613_35"
    INDEX 01 01:07:65
  TRACK 36 AUDIO
    TITLE "P1Q_j_1601-1613_36"
    INDEX 01 01:08:37
  TRACK 37 AUDIO
    TITLE "P1Q_j_1601-1613_37"
    INDEX 01 01:10:01
  TRACK 38 AUDIO
    TITLE "P1Q_j_1601-1613_38"
    INDEX 01 01:10:21
  TRACK 39 AUDIO
    TITLE "P1Q_j_1601-1613_39"
    INDEX 01 01:15:12
  TRACK 40 AUDIO
    TITLE "P1Q_j_1601-1613_40"
    INDEX 01 01:15:32
  TRACK 41 AUDIO
    TITLE "P1Q_j_1601-1613_41"
    INDEX 01 01:20:13
  TRACK 42 AUDIO
    TITLE "P1Q_j_1601-1613_42"
    INDEX 01 01:20:58
  TRACK 43 AUDIO
    TITLE "P1Q_j_1601-1613_43"
    INDEX 01 01:22:08
  TRACK 44 AUDIO
    TITLE "P1Q_j_1601-1613_44"
    INDEX 01 01:22:30
  TRACK 45 AUDIO
    TITLE "P1Q_j_1601-1613_45"
    INDEX 01 01:27:21
  TRACK 46 AUDIO
    TITLE "P1Q_j_1601-1613_46"
    INDEX 01 01:27:41
  TRACK 47 AUDIO
    TITLE "P1Q_j_1601-1613_47"
    INDEX 01 01:32:16
  TRACK 48 AUDIO
    TITLE "P1Q_j_1601-1613_48"
    INDEX 01 01:32:61
  TRACK 49 AUDIO
    TITLE "P1Q_j_1601-1613_49"
    INDEX 01 01:34:04
  TRACK 50 AUDIO
    TITLE "P1Q_j_1601-1613_50"
    INDEX 01 01:34:25
  TRACK 51 AUDIO
    TITLE "P1Q_j_1601-1613_51"
    INDEX 01 01:35:36
  TRACK 52 AUDIO
    TITLE "P1Q_j_1601-1613_52"
    INDEX 01 01:35:56
  TRACK 53 AUDIO
    TITLE "P1Q_j_1601-1613_53"
    INDEX 01 01:40:20
  TRACK 54 AUDIO
    TITLE "P1Q_j_1601-1613_54"
    INDEX 01 01:40:67
  TRACK 55 AUDIO
    TITLE "P1Q_j_1601-1613_55"
    INDEX 01 01:42:31
  TRACK 56 AUDIO
    TITLE "P1Q_j_1601-1613_56"
    INDEX 01 01:42:48
  TRACK 57 AUDIO
    TITLE "P1Q_j_1601-1613_57"
    INDEX 01 01:46:54
  TRACK 58 AUDIO
    TITLE "P1Q_j_1601-1613_58"
    INDEX 01 01:46:73
  TRACK 59 AUDIO
    TITLE "P1Q_j_1601-1613_59"
    INDEX 01 01:51:29
  TRACK 60 AUDIO
    TITLE "P1Q_j_1601-1613_60"
    INDEX 01 01:52:05
  TRACK 61 AUDIO
    TITLE "P1Q_j_1601-1613_61"
    INDEX 01 01:53:44
  TRACK 62 AUDIO
    TITLE "P1Q_j_1601-1613_62"
    INDEX 01 01:53:64
  TRACK 63 AUDIO
    TITLE "P1Q_j_1601-1613_63"
    INDEX 01 01:58:31
  TRACK 64 AUDIO
    TITLE "P1Q_j_1601-1613_64"
    INDEX 01 01:58:49
  TRACK 65 AUDIO
    TITLE "P1Q_j_1601-1613_65"
    INDEX 01 02:03:33
  TRACK 66 AUDIO
    TITLE "P1Q_j_1601-1613_66"
    INDEX 01 02:04:03
  TRACK 67 AUDIO
    TITLE "P1Q_j_1601-1613_67"
    INDEX 01 02:05:71
  TRACK 68 AUDIO
    TITLE "P1Q_j_1601-1613_68"
    INDEX 01 02:06:17
  TRACK 69 AUDIO
    TITLE "P1Q_j_1601-1613_69"
    INDEX 01 02:08:67
  TRACK 70 AUDIO
    TITLE "P1Q_j_1601-1613_70"
    INDEX 01 02:09:12
  TRACK 71 AUDIO
    TITLE "P1Q_j_1601-1613_71"
    INDEX 01 02:13:04
  TRACK 72 AUDIO
    TITLE "P1Q_j_1601-1613_72"
    INDEX 01 02:13:51
  TRACK 73 AUDIO
    TITLE "P1Q_j_1601-1613_73"
    INDEX 01 02:16:02
  TRACK 74 AUDIO
    TITLE "P1Q_j_1601-1613_74"
    INDEX 01 02:16:22
  TRACK 75 AUDIO
    TITLE "P1Q_j_1601-1613_75"
    INDEX 01 02:18:58
  TRACK 76 AUDIO
    TITLE "P1Q_j_1601-1613_76"
    INDEX 01 02:19:02
  TRACK 77 AUDIO
    TITLE "P1Q_j_1601-1613_77"
    INDEX 01 02:22:16
  TRACK 78 AUDIO
    TITLE "P1Q_j_1601-1613_78"
    INDEX 01 02:22:63
  TRACK 79 AUDIO
    TITLE "P1Q_j_1601-1613_79"
    INDEX 01 02:24:19
  TRACK 80 AUDIO
    TITLE "P1Q_j_1601-1613_80"
    INDEX 01 02:24:39
  TRACK 81 AUDIO
    TITLE "P1Q_j_1601-1613_81"
    INDEX 01 02:27:55
  TRACK 82 AUDIO
    TITLE "P1Q_j_1601-1613_82"
    INDEX 01 02:27:74
  TRACK 83 AUDIO
    TITLE "P1Q_j_1601-1613_83"
    INDEX 01 02:33:34
